<mxfile host="Electron" agent="Mozilla/5.0 (Windows NT 10.0; Win64; x64) AppleWebKit/537.36 (KHTML, like Gecko) draw.io/26.0.9 Chrome/128.0.6613.186 Electron/32.2.5 Safari/537.36" version="26.0.9">
  <diagram name="Página-1" id="BSRXS3mPUt0xW3dFuNx-">
    <mxGraphModel dx="864" dy="516" grid="1" gridSize="10" guides="1" tooltips="1" connect="1" arrows="1" fold="1" page="1" pageScale="1" pageWidth="1169" pageHeight="1654" math="0" shadow="0">
      <root>
        <mxCell id="0" />
        <mxCell id="1" parent="0" />
        <mxCell id="fkWbs9PVJMLdorz33c4r-6" style="edgeStyle=orthogonalEdgeStyle;rounded=0;orthogonalLoop=1;jettySize=auto;html=1;exitX=0.5;exitY=1;exitDx=0;exitDy=0;entryX=0.5;entryY=0;entryDx=0;entryDy=0;" edge="1" parent="1" source="fkWbs9PVJMLdorz33c4r-1" target="fkWbs9PVJMLdorz33c4r-2">
          <mxGeometry relative="1" as="geometry" />
        </mxCell>
        <mxCell id="fkWbs9PVJMLdorz33c4r-1" value="inicio" style="rounded=1;whiteSpace=wrap;html=1;" vertex="1" parent="1">
          <mxGeometry x="370" y="20" width="110" height="40" as="geometry" />
        </mxCell>
        <mxCell id="fkWbs9PVJMLdorz33c4r-2" value="numero" style="shape=parallelogram;perimeter=parallelogramPerimeter;whiteSpace=wrap;html=1;fixedSize=1;" vertex="1" parent="1">
          <mxGeometry x="372.5" y="100" width="105" height="40" as="geometry" />
        </mxCell>
        <mxCell id="fkWbs9PVJMLdorz33c4r-17" style="edgeStyle=orthogonalEdgeStyle;rounded=0;orthogonalLoop=1;jettySize=auto;html=1;exitX=0.5;exitY=1;exitDx=0;exitDy=0;entryX=0.5;entryY=0;entryDx=0;entryDy=0;" edge="1" parent="1" source="fkWbs9PVJMLdorz33c4r-4" target="fkWbs9PVJMLdorz33c4r-12">
          <mxGeometry relative="1" as="geometry" />
        </mxCell>
        <mxCell id="fkWbs9PVJMLdorz33c4r-4" value="tabuada = numero * cont" style="rounded=0;whiteSpace=wrap;html=1;" vertex="1" parent="1">
          <mxGeometry x="334.38" y="320" width="161.25" height="50" as="geometry" />
        </mxCell>
        <mxCell id="fkWbs9PVJMLdorz33c4r-24" style="edgeStyle=orthogonalEdgeStyle;rounded=0;orthogonalLoop=1;jettySize=auto;html=1;exitX=1;exitY=0.5;exitDx=0;exitDy=0;entryX=0.5;entryY=0;entryDx=0;entryDy=0;" edge="1" parent="1" source="fkWbs9PVJMLdorz33c4r-5" target="fkWbs9PVJMLdorz33c4r-21">
          <mxGeometry relative="1" as="geometry" />
        </mxCell>
        <mxCell id="fkWbs9PVJMLdorz33c4r-5" value="cont = 0" style="rounded=0;whiteSpace=wrap;html=1;" vertex="1" parent="1">
          <mxGeometry x="365" y="170" width="105" height="40" as="geometry" />
        </mxCell>
        <mxCell id="fkWbs9PVJMLdorz33c4r-7" style="edgeStyle=orthogonalEdgeStyle;rounded=0;orthogonalLoop=1;jettySize=auto;html=1;exitX=0.5;exitY=1;exitDx=0;exitDy=0;entryX=0.581;entryY=0.025;entryDx=0;entryDy=0;entryPerimeter=0;" edge="1" parent="1" source="fkWbs9PVJMLdorz33c4r-2" target="fkWbs9PVJMLdorz33c4r-5">
          <mxGeometry relative="1" as="geometry" />
        </mxCell>
        <mxCell id="fkWbs9PVJMLdorz33c4r-16" style="edgeStyle=orthogonalEdgeStyle;rounded=0;orthogonalLoop=1;jettySize=auto;html=1;exitX=0.5;exitY=1;exitDx=0;exitDy=0;entryX=0.5;entryY=0;entryDx=0;entryDy=0;" edge="1" parent="1" source="fkWbs9PVJMLdorz33c4r-10" target="fkWbs9PVJMLdorz33c4r-13">
          <mxGeometry relative="1" as="geometry" />
        </mxCell>
        <mxCell id="fkWbs9PVJMLdorz33c4r-26" style="edgeStyle=orthogonalEdgeStyle;rounded=0;orthogonalLoop=1;jettySize=auto;html=1;exitX=1;exitY=0.5;exitDx=0;exitDy=0;entryX=1;entryY=0.5;entryDx=0;entryDy=0;" edge="1" parent="1" source="fkWbs9PVJMLdorz33c4r-10" target="fkWbs9PVJMLdorz33c4r-21">
          <mxGeometry relative="1" as="geometry">
            <Array as="points">
              <mxPoint x="640" y="540" />
              <mxPoint x="640" y="245" />
            </Array>
          </mxGeometry>
        </mxCell>
        <mxCell id="fkWbs9PVJMLdorz33c4r-29" value="não" style="edgeLabel;html=1;align=center;verticalAlign=middle;resizable=0;points=[];" vertex="1" connectable="0" parent="fkWbs9PVJMLdorz33c4r-26">
          <mxGeometry x="-0.8427" y="1" relative="1" as="geometry">
            <mxPoint x="1" as="offset" />
          </mxGeometry>
        </mxCell>
        <mxCell id="fkWbs9PVJMLdorz33c4r-10" value="cont = 10" style="rhombus;whiteSpace=wrap;html=1;" vertex="1" parent="1">
          <mxGeometry x="377.5" y="500" width="80" height="80" as="geometry" />
        </mxCell>
        <mxCell id="fkWbs9PVJMLdorz33c4r-12" value="tabuada" style="shape=document;whiteSpace=wrap;html=1;boundedLbl=1;" vertex="1" parent="1">
          <mxGeometry x="360" y="410" width="110" height="60" as="geometry" />
        </mxCell>
        <mxCell id="fkWbs9PVJMLdorz33c4r-13" value="fim" style="rounded=1;whiteSpace=wrap;html=1;" vertex="1" parent="1">
          <mxGeometry x="357.5" y="610" width="120" height="40" as="geometry" />
        </mxCell>
        <mxCell id="fkWbs9PVJMLdorz33c4r-18" value="" style="endArrow=classic;html=1;rounded=0;exitX=0.527;exitY=0.8;exitDx=0;exitDy=0;exitPerimeter=0;entryX=0.5;entryY=0;entryDx=0;entryDy=0;" edge="1" parent="1" source="fkWbs9PVJMLdorz33c4r-12" target="fkWbs9PVJMLdorz33c4r-10">
          <mxGeometry width="50" height="50" relative="1" as="geometry">
            <mxPoint x="420" y="390" as="sourcePoint" />
            <mxPoint x="470" y="340" as="targetPoint" />
          </mxGeometry>
        </mxCell>
        <mxCell id="fkWbs9PVJMLdorz33c4r-25" style="edgeStyle=orthogonalEdgeStyle;rounded=0;orthogonalLoop=1;jettySize=auto;html=1;exitX=0;exitY=0.5;exitDx=0;exitDy=0;entryX=0.5;entryY=0;entryDx=0;entryDy=0;" edge="1" parent="1" source="fkWbs9PVJMLdorz33c4r-21" target="fkWbs9PVJMLdorz33c4r-4">
          <mxGeometry relative="1" as="geometry" />
        </mxCell>
        <mxCell id="fkWbs9PVJMLdorz33c4r-21" value="cont = cont + 1" style="rounded=0;whiteSpace=wrap;html=1;" vertex="1" parent="1">
          <mxGeometry x="480" y="220" width="110" height="50" as="geometry" />
        </mxCell>
      </root>
    </mxGraphModel>
  </diagram>
</mxfile>
